<?xml version="1.0" encoding="UTF-8"?>
<svg xmlns="http://www.w3.org/2000/svg" version="1.1" viewBox="0 0 64 64">
  <defs>
    <style>
      .cls-1 {
        fill: #fff;
      }

      .cls-2 {
        fill: #222;
      }
    </style>
  </defs>
  <!-- Generator: Adobe Illustrator 28.7.1, SVG Export Plug-In . SVG Version: 1.2.0 Build 142)  -->
  <g>
    <g id="Layer_1">
      <g>
        <path class="cls-2" d="M32,5.6h2.2c0,.1,0,0,.1,0,.7,0,1.3.1,2,.2,1.8.2,3.5.7,5.2,1.3,3.9,1.4,7.3,3.7,10.1,6.7,2.6,2.8,4.6,6.1,5.8,9.8.5,1.6.9,3.2,1.1,4.9,0,.3,0,.5,0,.8,0,0,0,.1,0,.1v4.5c-.1,0,0,0,0,.1,0,.5-.1.9-.2,1.4-.2,1.6-.6,3.1-1.1,4.7-1,2.9-2.5,5.6-4.4,8-2.1,2.5-4.5,4.6-7.4,6.3-3.2,1.8-6.7,3-10.4,3.3-.2,0-.3,0-.5,0,0,0-.1,0,0,0h-3.9c0-.1,0,0-.1,0-.7,0-1.4-.2-2.1-.3-1.7-.3-3.4-.7-5.1-1.3-3.8-1.4-7.1-3.7-9.9-6.6-2.3-2.5-4.1-5.4-5.3-8.6-1-2.5-1.5-5.1-1.6-7.8,0-.2,0-.4,0-.6,0,0,0-.1,0-.2h0c0-.6,0-1.1,0-1.6,0-.2,0-.4,0-.6,0-1.1.2-2.2.4-3.3.4-2.3,1.1-4.6,2.2-6.7,2-4.2,5-7.6,8.8-10.2,2.6-1.8,5.4-3,8.5-3.8,1.3-.3,2.6-.5,4-.6.2,0,.4,0,.6,0,0,0,.1,0,.1,0h1ZM13.7,43.7h.3c3.7,0,7.4,0,11.1,0,.8,0,1.5,0,2.3-.2,1.2-.2,2.3-.6,3.3-1.2,1.4-.8,2.3-2,2.7-3.6.4-1.3.3-2.7,0-4-.3-1.1-.9-2-1.7-2.7-.6-.5-1.3-.9-2.1-1.1,0,0-.1,0-.2,0,0,0,.1,0,.2-.1.3-.2.7-.4,1-.6,1-.7,1.7-1.7,1.9-2.9.2-1.2.2-2.3-.1-3.4-.3-1-.9-1.9-1.8-2.5-.6-.4-1.2-.7-1.8-.9-1.1-.3-2.2-.4-3.4-.5-3.8,0-7.5,0-11.3,0,0,0-.1,0-.2,0v23.7ZM51.3,35.8c0,0,0,0,0-.1,0-1,0-2-.2-3-.2-1.3-.7-2.5-1.4-3.6-1.1-1.7-2.6-2.8-4.5-3.3-1.2-.3-2.4-.3-3.6-.2-1.8.2-3.4,1-4.8,2.2-1.2,1.1-2,2.6-2.4,4.2-.3,1.2-.4,2.4-.3,3.7,0,1.1.3,2.1.8,3.1.6,1.4,1.5,2.5,2.7,3.4,1.2.8,2.5,1.2,4,1.4.8,0,1.6,0,2.4,0,.9,0,1.8-.3,2.7-.7.9-.4,1.8-1,2.4-1.7.8-.9,1.3-2,1.7-3.2,0,0,0,0,0-.1h-4.1c0,.1-.1.3-.2.4,0,.1-.2.3-.3.4-.5.5-1,.9-1.7,1.2-1.1.4-2.1.3-3.2,0-1-.3-1.8-.9-2.2-2-.2-.5-.3-1.1-.4-1.7,0-.1,0-.3,0-.5h12.4ZM47.7,21.2h-9.6v2.6h9.6v-2.6Z"/>
        <path d="M32,5.6h0,0Z"/>
        <path d="M33.6,58h0,0Z"/>
        <path d="M6.3,32.5h0s0,0,0,0Z"/>
        <path class="cls-1" d="M13.7,43.7v-23.7c0,0,.1,0,.2,0,3.8,0,7.5,0,11.3,0,1.1,0,2.3.1,3.4.5.7.2,1.3.5,1.8.9.9.6,1.5,1.5,1.8,2.5.3,1.1.4,2.3.1,3.4-.2,1.2-.9,2.1-1.9,2.9-.3.2-.6.4-1,.6,0,0-.1,0-.2.1.1,0,.2,0,.2,0,.8.2,1.5.6,2.1,1.1.9.7,1.4,1.6,1.7,2.7.4,1.3.4,2.7,0,4-.4,1.5-1.3,2.7-2.7,3.6-1,.6-2.1,1-3.3,1.2-.8.1-1.5.2-2.3.2-3.7,0-7.4,0-11.1,0h-.3ZM18.9,39.6c.1,0,.2,0,.3,0,1.7,0,3.4,0,5.1,0,.3,0,.6,0,.9,0,.5,0,1-.1,1.5-.3.9-.4,1.4-1,1.6-1.9.1-.7,0-1.3,0-2-.2-.8-.6-1.3-1.3-1.7-.2,0-.4-.2-.6-.3-.6-.2-1.2-.3-1.8-.3-1.8,0-3.7,0-5.5,0,0,0-.1,0-.2,0v6.5ZM18.9,24v5.5c0,0,.1,0,.2,0,1.8,0,3.5,0,5.3,0,.5,0,1-.1,1.4-.3.8-.3,1.3-.9,1.5-1.7.1-.5.1-1,0-1.5-.1-.7-.5-1.2-1.1-1.6-.3-.2-.6-.3-.9-.3-.5,0-1-.1-1.5-.1-1.5,0-3.1,0-4.6,0,0,0-.1,0-.2,0Z"/>
        <path class="cls-1" d="M51.3,35.8h-12.4c0,.2,0,.3,0,.5,0,.6.2,1.2.4,1.7.4,1,1.1,1.7,2.2,2,1.1.3,2.1.3,3.2,0,.7-.2,1.2-.6,1.7-1.2.1-.1.2-.2.3-.4,0-.1.1-.3.2-.4h4.1c0,0,0,0,0,.1-.4,1.2-.9,2.2-1.7,3.2-.7.8-1.5,1.3-2.4,1.7-.9.4-1.8.6-2.7.7-.8,0-1.6,0-2.4,0-1.4-.2-2.8-.6-4-1.4-1.3-.9-2.1-2-2.7-3.4-.4-1-.7-2-.8-3.1-.1-1.2,0-2.5.3-3.7.4-1.6,1.2-3,2.4-4.2,1.3-1.2,2.9-2,4.8-2.2,1.2-.1,2.4-.1,3.6.2,1.9.5,3.4,1.6,4.5,3.3.7,1.1,1.1,2.3,1.4,3.6.2,1,.2,2,.2,3,0,0,0,0,0,.1ZM46.6,32.8c0-.1,0-.2,0-.3-.2-.7-.4-1.4-.8-2-.4-.6-1-1.1-1.7-1.2-.6-.2-1.3-.2-1.9,0-1,.1-1.8.6-2.4,1.3-.4.5-.6,1.1-.8,1.7,0,.2,0,.4,0,.5h7.7Z"/>
        <path class="cls-1" d="M47.7,21.2v2.6h-9.6v-2.6h9.6Z"/>
        <path class="cls-2" d="M18.9,39.6v-6.5c0,0,.1,0,.2,0,1.8,0,3.7,0,5.5,0,.6,0,1.2,0,1.8.3.2,0,.4.2.6.3.7.4,1.1.9,1.3,1.7.2.7.2,1.3,0,2-.2.9-.7,1.6-1.6,1.9-.5.2-1,.3-1.5.3-.3,0-.6,0-.9,0-1.7,0-3.4,0-5.1,0,0,0-.2,0-.3,0Z"/>
        <path class="cls-2" d="M18.9,24c0,0,.2,0,.2,0,1.5,0,3.1,0,4.6,0,.5,0,1,0,1.5.1.3,0,.6.2.9.3.6.3,1,.9,1.1,1.6,0,.5,0,1,0,1.5-.2.8-.7,1.4-1.5,1.7-.5.2-.9.3-1.4.3-1.8,0-3.5,0-5.3,0,0,0-.1,0-.2,0v-5.5Z"/>
        <path class="cls-2" d="M46.6,32.8h-7.7c0-.2,0-.4,0-.5.1-.6.3-1.2.8-1.7.6-.8,1.4-1.2,2.4-1.3.6,0,1.3,0,1.9,0,.7.2,1.3.6,1.7,1.2.4.6.6,1.3.8,2,0,0,0,.2,0,.3Z"/>
      </g>
    </g>
  </g>
</svg>