<?xml version="1.0" encoding="UTF-8"?>
<svg id="Layer_1" xmlns="http://www.w3.org/2000/svg" version="1.1" viewBox="0 0 122.5 122.2">
  <!-- Generator: Adobe Illustrator 30.1.0, SVG Export Plug-In . SVG Version: 2.1.1 Build 136)  -->
  <defs>
    <style>
      .st0 {
        fill: #222;
      }
    </style>
  </defs>
  <g id="OSJY6x">
    <g>
      <path class="st0" d="M52.6,3.3c32.3-4.8,61.7,17.5,66.4,48.9,4.9,32.2-17.2,62-49.2,66.7-31.7,4.7-61.7-17.3-66.4-49C-1.2,38.2,20.1,8.1,52.6,3.3ZM54.5,12.3c-27.9,3.8-45.8,29.1-42.1,56.1,3.6,26.1,28.8,45.2,54.3,41.9,27.7-3.6,46.8-28.3,43.4-55.2-3.4-27.2-27.7-46.6-55.5-42.8Z"/>
      <path class="st0" d="M58.1,88.5c-6-.4-11.6,1.4-16.5-2.1l-.6-46.2c-.1-8.7,12.8-7,23.7-6.4,14.2.8,23.1,11.8,23.4,25.7.2,8.2-1.9,16.1-7.7,21.8-5.6,5.5-13.9,7.7-22.4,7.1ZM79.7,59.8c-.3-9-5.1-16-14.3-16.9-4.9-.4-10-.1-15.1-.1v36.4s13.2,0,13.2,0c10.6,0,16.6-9.1,16.2-19.5Z"/>
    </g>
  </g>
</svg>