<?xml version="1.0" encoding="UTF-8"?>
<svg id="Layer_1" xmlns="http://www.w3.org/2000/svg" version="1.1" viewBox="0 0 122.5 122.2">
  <!-- Generator: Adobe Illustrator 30.1.0, SVG Export Plug-In . SVG Version: 2.1.1 Build 136)  -->
  <defs>
    <style>
      .st0 {
        fill: #fff;
      }
    </style>
  </defs>
  <g id="hYAQGB.tif">
    <g>
      <path class="st0" d="M119.7,70.7v37.8c-1.9,5.2-5.1,9.2-10.3,11.1H13.1c-5.7-2.3-10.3-7-10.3-13.9V15.2c.1-6,6-12.3,11.6-12.4l35.2-.2c3.5,0,5.9,3.1,5.8,6.2s-2.5,5.5-5.8,5.5h-31.5c-1.8,0-3.6,1.7-3.6,3.7v86.1c0,2,1.8,3.7,3.7,3.7h86.2c1.9,0,3.7-1.8,3.7-3.6v-30.8c0-3.3,1.7-5.9,4.8-6.5s5.2,1.4,6.9,3.7Z"/>
      <path class="st0" d="M119.7,6.4v33.4c-1.6,2.1-3.7,3.9-6.2,3.8s-5.2-2.3-5.3-5.1l-.4-14.7-42.3,42.2c-2.8,2.8-7,2.6-9.4,0s-2.3-6.4.3-9L98.6,14.6l-13.3-.2c-3.6,0-6.3-2-6.5-5.5s1.8-6.1,5.1-6.1h30.8c1.9,0,3.9,2.5,5,3.7Z"/>
    </g>
  </g>
</svg>