<?xml version="1.0" encoding="UTF-8"?>
<svg id="Layer_1" xmlns="http://www.w3.org/2000/svg" version="1.1" viewBox="0 0 122.5 122.2">
  <!-- Generator: Adobe Illustrator 30.1.0, SVG Export Plug-In . SVG Version: 2.1.1 Build 136)  -->
  <defs>
    <style>
      .st0 {
        fill: #222;
      }
    </style>
  </defs>
  <g id="hHdGil.tif">
    <g>
      <path class="st0" d="M64.1,119.6h-5.7c-.2,0-.5-.1-.7-.1-29.4-1.7-53-25.3-54.8-54.7,0-.2,0-.5-.1-.7v-6c1.3-21.6,14-40.8,34-50.1,15.6-7.2,33.5-7.2,49.1,0,19.8,9.1,32.8,28.6,33.8,50.3s-15.5,50.6-41,58.6c-4.8,1.5-9.7,2.3-14.6,2.7ZM71.9,75.7l3.4-18.6c.3-1.6.3-3.2.1-4.8s-1.3-3.3-3-4.3c-1.8-.9-3.8-1.4-5.9-1.4h-6.8s2-10.6,2-10.6h-7s-7.3,39.6-7.3,39.6h7s4.2-22.7,4.2-22.7h6.7c1,0,1.9.5,2.6,1.2.4,1,.6,2.1.4,3.3l-3.4,18.2h7.1ZM44.3,67.8c2.8-5.3,4.4-14.5-.7-19-1.9-1.5-4.1-2.3-6.6-2.3h-14.4c0,0-7.3,39.6-7.3,39.6h7.1s1.9-10.5,1.9-10.5h6.4c2.3,0,4.5-.4,6.6-1.1s5.7-4.2,7-6.7ZM105.2,66.6c2.3-5.1,3.5-13.6-1.3-17.7-1.9-1.5-4.2-2.3-6.7-2.3h-14.3s-7.3,39.6-7.3,39.6h7.1s1.9-10.5,1.9-10.5h6.7c2.1,0,4.2-.4,6.2-1.1,3.2-1.1,6.3-4.9,7.7-8Z"/>
      <path class="st0" d="M98,65.8c-.9,1.7-2.1,2.6-3.8,3-2.7.6-5.5.8-8.4.7l3-16.5c2.9-.2,5.6-.1,8.3.5s2.4,1.4,2.6,3c.2,3.1-.4,6.4-1.8,9.4Z"/>
      <path class="st0" d="M37.7,65.8c-.9,1.7-2.1,2.6-3.8,3-2.7.6-5.5.8-8.4.7l3-16.5c2.8-.2,5.6,0,8.3.5s2.4,1.3,2.7,2.9c.2,3.2-.4,6.5-1.8,9.4Z"/>
    </g>
  </g>
</svg>