<?xml version="1.0" encoding="UTF-8"?>
<svg xmlns="http://www.w3.org/2000/svg" version="1.1" viewBox="0 0 50 50">
  <defs>
    <style>
      .cls-1 {
        fill: #222;
      }
    </style>
  </defs>
  <!-- Generator: Adobe Illustrator 28.6.0, SVG Export Plug-In . SVG Version: 1.2.0 Build 709)  -->
  <g>
    <g id="Layer_1">
      <g>
        <path class="cls-1" d="M34.1,14.4c1,3.3,1.4,6.5,1.5,9.9H14.4c0-3.3.5-6.6,1.5-9.9,6.1,1.2,12.1,1.3,18.2,0Z"/>
        <path class="cls-1" d="M35.6,25.7c0,3.4-.5,6.6-1.4,9.6-3.1-.2-6.1-.6-9.1-.6-3,0-6.1.4-9.2.6-.9-3-1.3-6.3-1.4-9.6h21.1Z"/>
        <path class="cls-1" d="M33.6,13c-3.4,1.2-13.4,1.2-17.2,0,.2-.5.4-1,.6-1.4,1-2.3,2.2-4.3,4.1-5.9,2.5-2,5.3-2,7.9,0,1.9,1.5,4.1,5,4.6,7.4Z"/>
        <path class="cls-1" d="M33.7,36.9c-1.2,3.1-2.6,5.8-5.2,7.7-2.3,1.7-5.1,1.6-7.3-.2-2.1-1.6-4.1-4.8-4.8-7.5,5.7-1.2,11.4-1.2,17.3,0Z"/>
        <path class="cls-1" d="M35.7,14.1c1.7-.6,3.5-1.2,5.4-1.8.2,0,.5.2.6.3,2.1,2.8,3.3,6,3.8,9.5,0,.7.1,1.4.2,2.1h-8.5c-.5-3.4-1-6.8-1.5-10.2Z"/>
        <path class="cls-1" d="M12.8,24.3H4.2c.3-1.6.5-3.1.8-4.6.6-2.5,1.7-4.8,3.2-6.9.3-.4.6-.5,1.1-.3,1.7.6,3.4,1.1,5,1.7-.5,3.4-1,6.7-1.5,10.2Z"/>
        <path class="cls-1" d="M35.7,35.9c.5-3.4,1-6.7,1.5-10.2h8.6c-.2,1.5-.4,2.9-.7,4.3-.6,2.6-1.7,5.1-3.4,7.2-.1.2-.5.4-.7.4-1.8-.6-3.6-1.2-5.3-1.8Z"/>
        <path class="cls-1" d="M12.8,25.7c.5,3.4,1,6.8,1.5,10.2-.4,0-.9.2-1.4.4-1.3.4-2.5.9-3.8,1.2-.2,0-.6,0-.7-.1-2.5-3.4-3.9-7.2-4.1-11.5,0,0,0-.1,0-.3h8.4Z"/>
        <path class="cls-1" d="M35.1,37.2c1.8.6,3.5,1.1,5.4,1.7-2.9,3.2-6.2,5.2-10.2,6.3,2.2-2.2,3.7-4.9,4.8-7.9Z"/>
        <path class="cls-1" d="M9.5,11.1c2.9-3.2,6.2-5.2,10.2-6.3-2.2,2.2-3.6,4.9-4.8,7.9-1.8-.6-3.5-1.1-5.4-1.7Z"/>
        <path class="cls-1" d="M40.5,11.1c-1.9.6-3.6,1.1-5.4,1.7-1.1-3-2.5-5.7-4.8-7.9,4,1,7.3,3.1,10.2,6.2Z"/>
        <path class="cls-1" d="M19.7,45.1c-4-1-7.3-3.1-10.2-6.2,1.9-.6,3.6-1.1,5.4-1.7,1.1,3,2.5,5.7,4.8,7.9Z"/>
      </g>
    </g>
  </g>
</svg>