<?xml version="1.0" encoding="UTF-8"?>
<svg id="Layer_1" xmlns="http://www.w3.org/2000/svg" version="1.1" viewBox="0 0 122.5 122.2">
  <!-- Generator: Adobe Illustrator 30.1.0, SVG Export Plug-In . SVG Version: 2.1.1 Build 136)  -->
  <defs>
    <style>
      .st0 {
        fill: #222;
      }
    </style>
  </defs>
  <g id="Ez49Yu.tif">
    <g>
      <path class="st0" d="M64.9,3.3c.2.1.7.2,1,.2,28.1,2.2,50.7,24.8,52.9,52.9s0,.8.2,1v7.2c-.1.4-.2.9-.2,1.3-2.3,27.9-24.6,50.3-52.4,52.6l-2,.2c-2.2.2-4.3,0-6.5,0-14.5-.8-28.2-7.1-38.3-17.6C-.3,80.4-2,48.3,15.6,25.7S41.1,4.6,57.6,3.3h7.2ZM84,110.3c11.7-5.5,21.2-15,26.6-26.7,6.4-13.8,6.6-29.8.6-43.7-5.6-13.2-16.3-23.8-29.7-29.2-12.9-5.3-27.5-5.3-40.5,0-13.6,5.5-24.5,16.2-30.1,29.8-5.8,13.9-5.4,29.9,1,43.5,5.4,11.4,14.6,20.7,25.9,26.1,14.4,6.9,31.5,7.1,46.1.2Z"/>
      <path class="st0" d="M72.8,34.1c-11.4.8-13.6.7-25,0s-2.1.4-2.3,1.5.2,2.3,1.3,2.4l5.4.5,7.5,20.6-10.6,31.5-17.5-52,5.3-.5c1.2-.1,2-1,1.9-2.1s-1-2-2.4-1.9c-5.2.4-10.3.7-15.7.5,16.2-24.6,50.6-29.1,72.6-9.1-3.2,0-5.9,1.5-7.4,4.1-3.8,7.2,2.6,12.8,5.6,19.8,3.2,7.4,1.8,14.3-.6,21.8l-6,18.9-17.4-51.6,5.5-.5c1.2-.1,1.9-1.3,1.7-2.3s-1.1-1.8-2.3-1.7Z"/>
      <path class="st0" d="M77.1,106.5c-9.5,3.3-19.7,3.6-29.5.7l14.4-41.9,15.1,41.2Z"/>
      <path class="st0" d="M40.2,104.3c-23.3-11.3-33.5-39.1-22.9-62.8l22.9,62.8Z"/>
      <path class="st0" d="M100.3,59.9c.9-2.7,1.8-4.8,2.3-7.4,1.2-4.6,1.4-9.2,1-14.2,12.3,22.8,4.2,51.3-18.2,64.3l14.8-42.7Z"/>
    </g>
  </g>
</svg>